<svg width="16" height="17" viewBox="0 0 16 17"  xmlns="http://www.w3.org/2000/svg">
<path d="M7.99986 1.8333C4.33319 1.8333 1.33319 4.8333 1.33319 8.49997C1.33319 12.1666 4.33319 15.1666 7.99986 15.1666C11.6665 15.1666 14.6665 12.1666 14.6665 8.49997C14.6665 4.8333 11.6665 1.8333 7.99986 1.8333ZM7.99986 13.8333C5.05986 13.8333 2.66652 11.44 2.66652 8.49997C2.66652 5.55996 5.05986 3.16663 7.99986 3.16663C10.9399 3.16663 13.3332 5.55996 13.3332 8.49997C13.3332 11.44 10.9399 13.8333 7.99986 13.8333ZM11.0599 5.5533L6.66652 9.94663L4.93986 8.22663L3.99986 9.16663L6.66652 11.8333L11.9999 6.49996L11.0599 5.5533Z" />
</svg>
