<svg width="16" height="17" viewBox="0 0 16 17" fill="none" xmlns="http://www.w3.org/2000/svg">
<g clip-path="url(#clip0_221_160)">
<path d="M7.99999 5.83333C8.73332 5.83333 9.33332 5.23333 9.33332 4.5C9.33332 3.76667 8.73332 3.16667 7.99999 3.16667C7.26666 3.16667 6.66666 3.76667 6.66666 4.5C6.66666 5.23333 7.26666 5.83333 7.99999 5.83333ZM7.99999 7.16667C7.26666 7.16667 6.66666 7.76667 6.66666 8.5C6.66666 9.23333 7.26666 9.83333 7.99999 9.83333C8.73332 9.83333 9.33332 9.23333 9.33332 8.5C9.33332 7.76667 8.73332 7.16667 7.99999 7.16667ZM7.99999 11.1667C7.26666 11.1667 6.66666 11.7667 6.66666 12.5C6.66666 13.2333 7.26666 13.8333 7.99999 13.8333C8.73332 13.8333 9.33332 13.2333 9.33332 12.5C9.33332 11.7667 8.73332 11.1667 7.99999 11.1667Z" fill="#C4C4C4"/>
</g>
<defs>
<clipPath id="clip0_221_160">
<rect width="16" height="16" fill="white" transform="translate(0 0.5)"/>
</clipPath>
</defs>
</svg>
